<svg width="96" height="96" viewBox="0 0 96 96" fill="none" xmlns="http://www.w3.org/2000/svg">
<g clip-path="url(#clip0_18_167)">
<path d="M6 21C6 17.0218 7.58035 13.2064 10.3934 10.3934C13.2064 7.58035 17.0218 6 21 6H63C66.9782 6 70.7936 7.58035 73.6066 10.3934C76.4196 13.2064 78 17.0218 78 21V30.18C76.02 29.94 73.98 29.94 72 30.18V30H12V63C12 67.98 16.02 72 21 72H38.7L34.38 76.32C33.84 76.86 33.36 77.4 32.94 78H21C17.0218 78 13.2064 76.4196 10.3934 73.6066C7.58035 70.7936 6 66.9782 6 63V21ZM53.58 40.32L50.1 36.84C48.9 35.64 47.04 35.64 45.84 36.84C44.64 38.04 44.64 39.9 45.84 41.1L50.28 45.54C51.12 43.68 52.2 41.94 53.52 40.32H53.58ZM12 24H72V21C72 16.02 67.98 12 63 12H21C16.02 12 12 16.02 12 21V24ZM38.1 41.1C39.3 39.9 39.3 38.04 38.1 36.84C36.9 35.64 35.04 35.64 33.84 36.84L21.84 48.84C20.64 50.04 20.64 51.9 21.84 53.1L33.84 65.1C35.04 66.3 36.9 66.3 38.1 65.1C39.3 63.9 39.3 62.04 38.1 60.84L28.2 50.94L38.1 41.04V41.1ZM77.34 36.12C79.56 36.36 80.16 39 78.6 40.56L72.72 46.44C69.18 49.98 69.18 55.68 72.72 59.22C76.26 62.76 81.96 62.76 85.5 59.22L91.38 53.34C92.94 51.78 95.58 52.38 95.82 54.6C96.2358 58.169 95.7355 61.785 94.3662 65.107C92.997 68.429 90.804 71.3474 87.9942 73.5869C85.1843 75.8264 81.8503 77.3131 78.3066 77.9067C74.7628 78.5004 71.1263 78.1814 67.74 76.98L51.36 93.36C47.82 96.9 42.12 96.9 38.58 93.36C35.04 89.82 35.04 84.12 38.58 80.58L54.96 64.2C52.32 56.76 53.94 48.12 59.94 42.18C64.68 37.44 71.16 35.4 77.34 36.12Z" fill="#2196F3"/>
</g>
<defs>
<clipPath id="clip0_18_167">
<rect width="96" height="96" fill="white"/>
</clipPath>
</defs>
</svg>
