<svg width="96" height="96" viewBox="0 0 96 96" fill="none" xmlns="http://www.w3.org/2000/svg">
<path fill-rule="evenodd" clip-rule="evenodd" d="M87.7812 32.7329C88.5555 30.8329 91.0492 23.2947 87.007 13.0822C87.007 13.0822 80.775 11.1204 66.582 20.8009C60.6445 19.1384 54.2938 18.9009 48 18.9009C41.7062 18.9009 35.3555 19.1384 29.418 20.8009C15.225 11.0634 8.993 13.0822 8.993 13.0822C4.9555 23.2947 7.44925 30.8329 8.21875 32.7329C3.407 37.9009 0.5 44.5509 0.5 52.6259C0.5 83.2017 20.2743 90.0892 47.8813 90.0892C75.493 90.0892 95.5 83.2017 95.5 52.6259C95.5 44.5509 92.5882 37.9009 87.7812 32.7329ZM48 84.2704C28.4062 84.2704 12.4938 83.3822 12.4938 64.3822C12.4938 59.8697 14.75 55.5947 18.55 52.0892C24.9055 46.2704 35.7688 49.3579 48 49.3579C60.293 49.3579 71.0375 46.2704 77.45 52.0892C81.3118 55.5947 83.5062 59.8079 83.5062 64.3822C83.5062 83.3204 67.5938 84.2704 48 84.2704ZM33.0993 54.5259C29.1805 54.5259 25.9742 59.2759 25.9742 65.0947C25.9742 70.9134 29.1758 75.7204 33.0993 75.7204C37.018 75.7204 40.2243 70.9704 40.2243 65.0947C40.2243 59.2189 37.018 54.5259 33.0993 54.5259ZM62.9055 54.5259C58.9867 54.5259 55.7805 59.2142 55.7805 65.0947C55.7805 70.9752 58.9867 75.7204 62.9055 75.7204C66.8242 75.7204 70.0305 70.9704 70.0305 65.0947C70.0305 59.2189 66.8812 54.5259 62.9055 54.5259Z" fill="white"/>
</svg>
